<svg width="220" height="37" viewBox="0 0 223 46" fill="none" xmlns="http://www.w3.org/2000/svg">
<path d="M71.9498 41.3183V10.7544H59.9835V6.41661H88.8522V10.7544H76.8859V41.3183H71.9498ZM108.826 41.3183V35.7341L108.576 34.687V25.1638C108.576 23.1362 107.978 21.5739 106.781 20.477C105.618 19.3469 103.856 18.7818 101.496 18.7818C99.9341 18.7818 98.4051 19.0477 96.9093 19.5796C95.4135 20.0781 94.1504 20.7596 93.1199 21.6238L91.1256 18.0339C92.4884 16.937 94.1171 16.106 96.0118 15.5409C97.9397 14.9426 99.9507 14.6434 102.045 14.6434C105.668 14.6434 108.46 15.5243 110.421 17.286C112.382 19.0477 113.363 21.7401 113.363 25.3633V41.3183H108.826ZM100.15 41.6175C98.189 41.6175 96.4605 41.2851 94.9647 40.6203C93.5022 39.9555 92.372 39.0414 91.5743 37.878C90.7765 36.6814 90.3777 35.3352 90.3777 33.8394C90.3777 32.4101 90.7101 31.1137 91.3749 29.9504C92.0729 28.787 93.1864 27.8562 94.7154 27.1582C96.2777 26.4602 98.3718 26.1112 100.998 26.1112H109.374V29.5515H101.197C98.8039 29.5515 97.1918 29.9504 96.3608 30.7481C95.5298 31.5459 95.1143 32.5098 95.1143 33.64C95.1143 34.9363 95.6295 35.9834 96.66 36.7811C97.6904 37.5456 99.1197 37.9279 100.948 37.9279C102.743 37.9279 104.305 37.529 105.635 36.7313C106.998 35.9335 107.978 34.7701 108.576 33.2411L109.524 36.5318C108.892 38.0941 107.779 39.3406 106.183 40.2713C104.588 41.1688 102.577 41.6175 100.15 41.6175ZM130.049 41.6175C127.855 41.6175 125.761 41.3183 123.766 40.72C121.805 40.1217 120.26 39.3904 119.129 38.5262L121.124 34.7369C122.254 35.5014 123.65 36.1496 125.312 36.6814C126.974 37.2132 128.669 37.4792 130.398 37.4792C132.625 37.4792 134.22 37.1634 135.184 36.5318C136.181 35.9003 136.68 35.0194 136.68 33.8893C136.68 33.0583 136.381 32.4101 135.783 31.9447C135.184 31.4794 134.387 31.1304 133.389 30.8977C132.425 30.665 131.345 30.4656 130.148 30.2994C128.952 30.0999 127.755 29.8673 126.559 29.6013C125.362 29.3022 124.265 28.9033 123.268 28.4047C122.271 27.8729 121.473 27.1582 120.875 26.2607C120.276 25.33 119.977 24.1002 119.977 22.5711C119.977 20.9756 120.426 19.5796 121.323 18.3829C122.221 17.1863 123.484 16.2722 125.113 15.6406C126.775 14.9758 128.736 14.6434 130.996 14.6434C132.725 14.6434 134.47 14.8595 136.231 15.2916C138.026 15.6905 139.489 16.2722 140.619 17.0367L138.575 20.826C137.378 20.0283 136.132 19.4798 134.835 19.1807C133.539 18.8815 132.243 18.7319 130.946 18.7319C128.852 18.7319 127.29 19.081 126.259 19.779C125.229 20.4438 124.714 21.308 124.714 22.3717C124.714 23.2692 125.013 23.9672 125.611 24.4658C126.243 24.9312 127.041 25.2968 128.005 25.5627C129.002 25.8286 130.099 26.0613 131.295 26.2607C132.492 26.4269 133.688 26.6596 134.885 26.9588C136.082 27.2247 137.162 27.6069 138.126 28.1055C139.123 28.6041 139.921 29.3022 140.519 30.1997C141.151 31.0971 141.467 32.2938 141.467 33.7895C141.467 35.3851 141.001 36.7645 140.071 37.9279C139.14 39.0913 137.827 40.0054 136.132 40.6702C134.436 41.3017 132.409 41.6175 130.049 41.6175ZM151.587 34.9363L151.686 28.8036L166.894 14.8927H172.677L161.01 26.3605L158.417 28.5543L151.587 34.9363ZM147.698 41.3183V4.32251H152.484V41.3183H147.698ZM167.891 41.3183L157.52 28.4546L160.611 24.6154L173.774 41.3183H167.891ZM189.366 41.6175C186.541 41.6175 184.048 41.0358 181.888 39.8724C179.76 38.709 178.098 37.1135 176.902 35.0859C175.738 33.0583 175.156 30.7315 175.156 28.1055C175.156 25.4796 175.722 23.1528 176.852 21.1252C178.015 19.0976 179.594 17.5187 181.588 16.3885C183.616 15.2251 185.893 14.6434 188.419 14.6434C190.979 14.6434 193.239 15.2085 195.2 16.3387C197.161 17.4688 198.69 19.0643 199.787 21.1252C200.917 23.1528 201.482 25.5295 201.482 28.2551C201.482 28.4546 201.466 28.6872 201.432 28.9532C201.432 29.2191 201.416 29.4684 201.383 29.7011H178.896V26.2607H198.89L196.945 27.4574C196.978 25.7621 196.629 24.2497 195.898 22.9201C195.167 21.5906 194.153 20.5601 192.857 19.8288C191.594 19.0643 190.114 18.6821 188.419 18.6821C186.757 18.6821 185.278 19.0643 183.982 19.8288C182.685 20.5601 181.671 21.6072 180.94 22.97C180.209 24.2996 179.843 25.8286 179.843 27.5571V28.3548C179.843 30.1166 180.242 31.6954 181.04 33.0915C181.871 34.4543 183.018 35.518 184.48 36.2825C185.943 37.047 187.621 37.4293 189.516 37.4293C191.078 37.4293 192.491 37.1634 193.754 36.6315C195.05 36.0997 196.181 35.302 197.145 34.2383L199.787 37.3296C198.59 38.7256 197.095 39.7893 195.3 40.5206C193.538 41.2519 191.56 41.6175 189.366 41.6175ZM208.378 41.3183V14.8927H212.965V22.0725L212.517 20.2776C213.248 18.4494 214.478 17.0533 216.206 16.0894C217.935 15.1254 220.062 14.6434 222.588 14.6434V19.2804C222.389 19.2472 222.189 19.2305 221.99 19.2305C221.824 19.2305 221.658 19.2305 221.491 19.2305C218.932 19.2305 216.904 19.9951 215.408 21.5241C213.913 23.0531 213.165 25.2635 213.165 28.1554V41.3183H208.378Z" fill="#E3E3E3"/>
<path d="M16.4115 2.00061H4.74514C3.45651 2.00061 2.41187 3.04525 2.41187 4.33389V16.0002C2.41187 17.2889 3.45651 18.3335 4.74514 18.3335H16.4115C17.7001 18.3335 18.7448 17.2889 18.7448 16.0002V4.33389C18.7448 3.04525 17.7001 2.00061 16.4115 2.00061Z" stroke="#2960EE" stroke-width="4" stroke-linecap="round" stroke-linejoin="round"/>
<path d="M16.4115 27.6665H4.74514C3.45651 27.6665 2.41187 28.7112 2.41187 29.9998V41.6661C2.41187 42.9548 3.45651 43.9994 4.74514 43.9994H16.4115C17.7001 43.9994 18.7448 42.9548 18.7448 41.6661V29.9998C18.7448 28.7112 17.7001 27.6665 16.4115 27.6665Z" stroke="#2960EE" stroke-width="4" stroke-linecap="round" stroke-linejoin="round"/>
<path d="M42.0787 2.00061H30.4124C29.1238 2.00061 28.0791 3.04525 28.0791 4.33389V16.0002C28.0791 17.2889 29.1238 18.3335 30.4124 18.3335H42.0787C43.3674 18.3335 44.412 17.2889 44.412 16.0002V4.33389C44.412 3.04525 43.3674 2.00061 42.0787 2.00061Z" stroke="#2960EE" stroke-width="4" stroke-linecap="round" stroke-linejoin="round"/>
<path d="M42.0787 27.6665H30.4124C29.1238 27.6665 28.0791 28.7112 28.0791 29.9998V41.6661C28.0791 42.9548 29.1238 43.9994 30.4124 43.9994H42.0787C43.3674 43.9994 44.412 42.9548 44.412 41.6661V29.9998C44.412 28.7112 43.3674 27.6665 42.0787 27.6665Z" stroke="#2960EE" stroke-width="4" stroke-linecap="round" stroke-linejoin="round"/>
</svg>
